<svg version="1.0" width="260.000000pt" height="260.000000pt" viewBox="0 0 260.000000 260.000000" preserveAspectRatio="xMidYMid meet">
<metadata>Created by potrace 1.11, written by Peter Selinger 2001-2013</metadata>
<g transform="translate(0.000000,260.000000) scale(0.100000,-0.100000)" fill="#000000" stroke="none">
<path d="M433 2098 c-24 -28 -283 -532 -283 -552 0 -25 55 -58 270 -166 113
-57 237 -119 275 -139 l70 -36 7 -75 c24 -284 212 -519 498 -625 65 -25 93
-29 216 -33 166 -5 245 12 378 80 116 60 248 192 305 305 63 126 81 205 81
354 0 136 -15 207 -66 318 -68 147 -191 273 -337 345 -119 59 -194 76 -337 76
-143 0 -204 -15 -336 -80 l-101 -51 -295 151 c-162 82 -302 150 -310 150 -8 0
-24 -10 -35 -22z"/>
</g>
</svg>
